<svg xmlns="http://www.w3.org/2000/svg" width="188.324" height="43.194" viewBox="0 0 188.324 43.194"><defs><style>.a{fill:#226bb4;}</style></defs><path class="a" d="M-52.992-29.808v-8.924h-24.15v9.706H-78.2v-6.3h-1.748v-3.4H-91.494v3.4H-93.38v11.04h1.886v6.854l-2.208.368V-5.428h2.208v2.944L-93.38-.276V3.68h13.432V-7.406l1.656-.322V-19.412h-1.656v-4.876h1.1v3.68h10.58l2.346-2.024v-6.21h1.334v6.21l2.484,2.024h11.224v-9.2Zm.966,23.414V-19.6H-77.05v7.682H-63.3v1.656l-1.38,1.15-2.53-1.794H-77v5.474l1.7,1.38-3.5,2.392V3.772H-67.85l3.036-2.438,3.4,2.438h9.89v-5.8l-2.944-2.208ZM-2.99-37.858H-11.5v-1.564H-22.724v1.564h-7.222v9.108H-2.99ZM-30.912-16.79v2.208l-1.426-1.7V-17.94h1.656V-28.014h-1.656v-2.208l1.334-.92v-7.406H-45.08v8.924h2.53v1.61h-2.668V-17.94h2.346l-2.714,4.324V-.322h1.748l1.288-2.346v6.3h10.212V-5.06h1.426V3.634h9.522v-12.7h9.016v6.854l-1.012.874V-7.958h-6.992V1.7h4.462V3.634h13.34V-16.79Zm27-1.058v-9.8H-29.44v9.8Zm-15.87-5.336h5.8v1.38h-5.8Zm3.726,20.93h-1.472v-1.61h1.472Zm55.66-24.61h2.438l3.036-2.254v-8.924H30.452V-39.33h-9.66l-4.784,3.358v9.108h2.76l3.588-2.392v1.334l-6.3,4.048v3.588H27.416L29.9-22.724h.874l2.53,2.438H45.356v-4ZM14.95-38.594H3.174v8.648H14.95Zm9.062,8.234,1.426-.966H35.42v.966ZM14.95-28.888H7.084l-3.91,2.76v5.842H14.95ZM44.482-1.242V-19.228H4V-1.242H6.486L3.174,1.288V3.726H19.412l2.53-2.9H26.45l2.53,2.9H45.218V1.288l-3.312-2.53ZM31.832-13.57v1.058H16.146V-13.57Zm0,5.106H16.146V-9.476H31.832Zm-15.686,2.9H31.832v1.058H16.146Zm48.3-33.488H54.28v1.84H51.336v10.35H67.39v-10.35H64.446Zm28.29,28.612V-38.548H68.448V-26.5H69.92v5.106H68.172v10.718H69.92v14.4h9.936v-14.4h2.116v9.89l3.45,4.462h9.2V-10.442ZM79.856-21.39V-26.5h2.116v5.106Zm-12.7-4.416H51.52v6.67H67.16ZM51.52-11.684H67.16v-6.394H51.52ZM51.382,3.588h15.87V-10.534H51.382Zm6.67-7.82H60.4v1.7H58.052Z" transform="translate(93.702 39.422)"/></svg>